<svg xmlns="http://www.w3.org/2000/svg" xmlns:xlink="http://www.w3.org/1999/xlink" width="463.133" height="461.155" viewBox="0 0 463.133 461.155"><defs><style>.a{fill:#d1aa3d;}.b{fill:#fba927;}.c{fill:#fbc02d;}.d{fill:#e8ad29;}.e{fill:#fff176;}.f{fill:#ffee58;}.f,.h,.i,.u{mix-blend-mode:multiply;}.f,.g,.h,.i,.o,.u{isolation:isolate;}.g{fill:#fcd147;opacity:0.22;}.g,.o{mix-blend-mode:screen;}.h,.m{fill:#353fb0;}.h{opacity:0.67;}.i{opacity:0.24;fill:url(#a);}.j{fill:#8aa8ff;}.k{fill:#d7e4ff;}.l{fill:#a9c2ff;}.n{fill:#0c4da2;}.o,.s{fill:#fff;}.o{opacity:0.53;}.p{fill:#353da5;}.q{fill:#6969cc;}.r{fill:#222d7a;}.t{fill:url(#b);}.u{fill:#deebff;}.v{fill:#eff8ff;}.w{opacity:0.5;}.x{fill:#ed1568;}.y{fill:url(#d);}.z{fill:#989898;}.aa{fill:url(#e);}.ab{fill:#513983;}.ac{fill:#3af0b4;}.ad{fill:url(#f);}</style><linearGradient id="a" y1="0.5" x2="1" y2="0.5" gradientUnits="objectBoundingBox"><stop offset="0" stop-color="#3bbfff"/><stop offset="0.291" stop-color="#2f93ef"/><stop offset="0.603" stop-color="#246be1"/><stop offset="0.85" stop-color="#1e52d9"/><stop offset="1" stop-color="#1c49d6"/></linearGradient><linearGradient id="b" x1="0.842" y1="0.124" x2="0.055" y2="0.844" gradientUnits="objectBoundingBox"><stop offset="0" stop-color="#f4f7f6"/><stop offset="0.107" stop-color="#f1f4f6"/><stop offset="0.184" stop-color="#e9eaf6"/><stop offset="0.252" stop-color="#dbdbf6"/><stop offset="0.283" stop-color="#d3d1f6"/><stop offset="0.385" stop-color="#d9d6f7"/><stop offset="0.532" stop-color="#ece6fc"/><stop offset="0.558" stop-color="#f1eafd"/><stop offset="0.671" stop-color="#ede7fc"/><stop offset="0.768" stop-color="#e3def9"/><stop offset="0.852" stop-color="#d3d1f6"/></linearGradient><linearGradient id="d" y1="0.5" x2="1" y2="0.5" gradientUnits="objectBoundingBox"><stop offset="0" stop-color="#fdad64"/><stop offset="0.421" stop-color="#fe8761"/><stop offset="0.781" stop-color="#fe6f60"/><stop offset="1" stop-color="#ff6660"/></linearGradient><linearGradient id="e" x1="-6.316" y1="3.788" x2="-4.614" y2="3.788" gradientUnits="objectBoundingBox"><stop offset="0" stop-color="#513983"/><stop offset="1" stop-color="#71d9b7"/></linearGradient><linearGradient id="f" x1="-29.614" y1="11.221" x2="-28.781" y2="10.217" gradientUnits="objectBoundingBox"><stop offset="0" stop-color="#513983"/><stop offset="1" stop-color="#3af0b4"/></linearGradient></defs><g transform="translate(-819.416 -133.241)"><g transform="translate(819.416 199.14)"><path class="a" d="M1001.363,465.956,829.156,366.533a2.312,2.312,0,0,0-2.4-.242h0l-4.155,2.381,3.464,1.911V485.321a6.406,6.406,0,0,0,3.089,4.872l170.477,98.424-1.467,2.6,1.059,1.229,4.5-2.572a1.726,1.726,0,0,0,.722-1.566V470.828A6.406,6.406,0,0,0,1001.363,465.956Z" transform="translate(-821.702 -366.055)"/><g transform="translate(0 2.458)"><path class="b" d="M822.5,375.35l172.207,99.423a6.407,6.407,0,0,1,3.089,4.872V597.128c0,1.706-1.383,2.29-3.089,1.305L822.5,499.01a6.406,6.406,0,0,1-3.089-4.872V376.655C819.416,374.949,820.8,374.365,822.5,375.35Z" transform="translate(-819.416 -374.834)"/><g transform="translate(138.485 149.728)"><path class="c" d="M1310.842,904.047l22.02,12.713a4.508,4.508,0,0,1,2.174,3.429v18.85c0,1.2-.973,1.612-2.174.919l-22.02-12.713a4.508,4.508,0,0,1-2.174-3.429V904.966C1308.668,903.766,1309.641,903.355,1310.842,904.047Z" transform="translate(-1308.668 -903.711)"/><path class="d" d="M1308.668,954.817l26.367,15.223v2.175l-26.367-15.223Z" transform="translate(-1308.668 -940.351)"/><path class="d" d="M1367.847,934.634V957.77l-1.884-1.087V933.546Z" transform="translate(-1349.746 -925.101)"/><path class="d" d="M1340.678,918.948v23.136L1338.794,941V917.86Z" transform="translate(-1330.267 -913.855)"/><path class="d" d="M1308.668,936.89l26.367,15.223v2.175l-26.367-15.223Z" transform="translate(-1308.668 -927.498)"/><path class="d" d="M1308.668,918.963l26.367,15.223v2.175l-26.367-15.223Z" transform="translate(-1308.668 -914.645)"/></g><rect class="e" width="14.428" height="24.989" transform="matrix(0.866, -0.5, 0.5, 0.866, 24.108, 36.563)"/><rect class="f" width="14.428" height="24.989" transform="translate(11.136 29.073) rotate(-30)"/><g transform="translate(18.564 55.992)"><path class="e" d="M1276.715,798.708l33.308,19.23v8.1l-33.308-19.23Z" transform="translate(-1165.838 -734.693)"/><path class="e" d="M1143.935,722.047l33.308,19.23v8.1l-33.308-19.23Z" transform="translate(-1070.642 -679.732)"/><path class="e" d="M1014.063,647.066l33.308,19.23v8.1l-33.308-19.23Z" transform="translate(-977.531 -625.974)"/><path class="e" d="M885,572.551l33.308,19.23v8.1L885,580.647Z" transform="translate(-884.999 -572.551)"/></g><path class="e" d="M1276.715,726.482l33.308,19.23v8.1l-33.308-19.23Z" transform="translate(-1147.275 -626.919)"/><path class="e" d="M1143.935,649.821l33.308,19.23v8.1l-33.308-19.23Z" transform="translate(-1052.078 -571.957)"/><path class="e" d="M1252.438,991.645l42.039,24.271v8.1l-42.039-24.271Z" transform="translate(-1129.869 -817.027)"/><path class="g" d="M822.29,498.791l102.957,59.443L883.5,410.468,822.29,375.13c-1.587-.916-2.874-.173-2.874,1.66V493.812A6.354,6.354,0,0,0,822.29,498.791Z" transform="translate(-819.416 -374.738)"/></g></g><path class="h" d="M1394.27,727.664l-.068-130.276a19.859,19.859,0,0,1,6.865-15.028l19.545-16.912-99.547-57.493L1297.8,521.212a19.858,19.858,0,0,0-10.027,17.265l.07,135.8,99.671,57.476Z" transform="translate(-335.786 -268.65)"/><g transform="translate(949.875 133.241)"><g transform="translate(0)"><path class="i" d="M1619.3,1051.832l-146.61-84.646c-2.516-1.453-6.912-1.271-9.818.407l-169.7,97.974,160.084,91.14,164.833-95.166C1623.068,1058.668,1623.608,1054.321,1619.3,1051.832Z" transform="translate(-1289.534 -730.431)"/><path class="j" d="M1449.93,218.432l-146.61-84.645a3,3,0,0,0-2.809-.328h0a2.258,2.258,0,0,0-.306.174l-13.758,7.793,11.7,15.173.622-.164V446.921h0v8.372c0,5.747,3.494,12.424,7.8,14.913l134.159,77.456-8.624,6.169,9.557,9.417,14.4-8.1c1.024-.523,1.678-1.84,1.678-3.74V540.672h0V241.789h0v-8.444C1457.735,227.6,1454.241,220.92,1449.93,218.432Z" transform="translate(-1284.711 -133.241)"/><g transform="translate(0 7.96)"><path class="k" d="M1434.729,582.972l-146.61-84.645c-4.31-2.489-7.8-9.165-7.8-14.913V165.353c0-3.355,2.04-4.9,4.556-3.445l146.61,84.645c4.31,2.489,7.8,9.165,7.8,14.912V579.528C1439.286,582.883,1437.246,584.425,1434.729,582.972Z" transform="translate(-1280.315 -161.361)"/><path class="l" d="M1434.73,1392.826l-146.61-84.646c-4.31-2.489-7.8-9.165-7.8-14.912v1.662c0,5.747,3.494,12.424,7.8,14.913l146.61,84.645c2.516,1.453,4.556-.089,4.556-3.444v-1.662C1439.286,1392.736,1437.246,1394.279,1434.73,1392.826Z" transform="translate(-1280.315 -972.877)"/><g transform="translate(54.671 33.851)"><ellipse class="m" cx="2.519" cy="4.363" rx="2.519" ry="4.363" transform="translate(38.462 23.138) rotate(-30)"/><path class="m" d="M1505.262,301.636l-30.556-17.641a2.749,2.749,0,0,1-1.243-2.154h0c0-.793.557-1.114,1.243-.718l30.556,17.641a2.749,2.749,0,0,1,1.243,2.154h0C1506.506,301.711,1505.949,302.033,1505.262,301.636Z" transform="translate(-1473.463 -280.953)"/></g><path class="n" d="M1434.894,599.851l-148.71-85.857c-3.241-1.872-5.869-6.892-5.869-11.214V203.9c0-3.234,1.966-4.721,4.393-3.321l148.71,85.858c3.241,1.871,5.869,6.892,5.869,11.214V596.531C1439.286,599.765,1437.319,601.252,1434.894,599.851Z" transform="translate(-1280.315 -189.099)"/></g><path class="o" d="M1431.481,246.553l-146.61-84.645c-2.516-1.453-4.556.089-4.556,3.445v5.28c0-3.355,2.04-4.9,4.556-3.444l146.61,84.645c4.31,2.489,7.8,9.165,7.8,14.912v-5.28C1439.286,255.719,1435.792,249.042,1431.481,246.553Z" transform="translate(-1280.315 -153.402)"/><g transform="translate(162.776 146.127)"><g transform="translate(0 0)"><path class="p" d="M1858.544,696.8l-.41.237c-1.519.877-2.75-.054-2.75-2.079V655.313a6.586,6.586,0,0,1,2.75-5.255l.41-.237c1.519-.877,2.75.054,2.75,2.079v39.645A6.586,6.586,0,0,1,1858.544,696.8Z" transform="translate(-1855.384 -649.491)"/><path class="p" d="M1858.544,868.166l-.41.237c-1.519.877-2.75-.054-2.75-2.079v-18.7a6.587,6.587,0,0,1,2.75-5.255l.41-.237c1.519-.877,2.75.054,2.75,2.079v18.7A6.586,6.586,0,0,1,1858.544,868.166Z" transform="translate(-1855.384 -787.367)"/></g><g transform="translate(1.335 0)"><path class="q" d="M1863.261,696.8l-.41.237c-1.519.877-2.75-.054-2.75-2.079V655.313a6.586,6.586,0,0,1,2.75-5.255l.41-.237c1.519-.877,2.75.054,2.75,2.079v39.645A6.586,6.586,0,0,1,1863.261,696.8Z" transform="translate(-1860.101 -649.491)"/><path class="q" d="M1863.261,868.166l-.41.237c-1.519.877-2.75-.054-2.75-2.079v-18.7a6.587,6.587,0,0,1,2.75-5.255l.41-.237c1.519-.877,2.75.054,2.75,2.079v18.7A6.586,6.586,0,0,1,1863.261,868.166Z" transform="translate(-1860.101 -787.367)"/></g></g><path class="m" d="M1754.441,392.53c2.165,1.25,2.165,3.277,0,4.527a8.665,8.665,0,0,1-7.84,0c-2.165-1.25-2.165-3.277,0-4.527A8.665,8.665,0,0,1,1754.441,392.53Z" transform="translate(-1613.452 -318.465)"/><ellipse class="r" cx="3.766" cy="2.174" rx="3.766" ry="2.174" transform="translate(133.303 74.325)"/><path class="r" d="M1746.609,393.655a8.664,8.664,0,0,1,7.84,0,3.137,3.137,0,0,1,1.535,1.7c.306-.995-.2-2.057-1.535-2.825a8.665,8.665,0,0,0-7.84,0c-1.332.768-1.84,1.831-1.534,2.825A3.134,3.134,0,0,1,1746.609,393.655Z" transform="translate(-1613.461 -318.465)"/></g><path class="s" d="M1841.325,454.507a20.677,20.677,0,0,0-3.708-8.166l-15.643,6.174a19.655,19.655,0,0,1,5.015,8.774Z" transform="translate(-1668.655 -357.717)"/></g><path class="h" d="M1455.351,827.365l-134.592-77.707V734.079l134.592,77.707Z" transform="translate(-359.436 -430.768)"/><g transform="translate(946.221 318.935)"><path class="t" d="M1373.842,1064.738l-.006-183.56a19.858,19.858,0,0,1,10.042-17.263l23.226-13.208-106.4-61.43-23.272,13.26a19.858,19.858,0,0,0-10.027,17.255l.006,183.571Z" transform="translate(-1267.405 -789.277)"/><g transform="translate(6.859 47.748)"><path class="u" d="M1380.654,1065.325l-89.017-51.394v-6.25l89.017,51.394Z" transform="translate(-1291.637 -993.608)"/><path class="u" d="M1333.029,988.112l-41.392-23.9v-6.25l41.392,23.9Z" transform="translate(-1291.637 -957.964)"/><path class="u" d="M1482.141,1173.637l-48.949-28.261v-6.25l48.949,28.261Z" transform="translate(-1393.124 -1087.847)"/><path class="u" d="M1316.735,1078.14l-25.1-14.49v-6.25l25.1,14.491Z" transform="translate(-1291.637 -1029.253)"/><path class="u" d="M1487.51,1226.454l-46.83-27.037v-6.25l46.83,27.037Z" transform="translate(-1398.493 -1126.591)"/><path class="u" d="M1319.87,1129.667l-28.234-16.3v-6.25l28.234,16.3Z" transform="translate(-1291.637 -1064.898)"/><path class="u" d="M1476.772,1269.972l-51.069-29.484v-6.25l51.069,29.485Z" transform="translate(-1387.755 -1156.037)"/><path class="u" d="M1312.628,1175.2l-20.992-12.12v-6.25l20.992,12.12Z" transform="translate(-1291.637 -1100.543)"/><path class="u" d="M1493.389,1329.284l-44.508-25.7v-6.25l44.508,25.7Z" transform="translate(-1404.372 -1201.276)"/><path class="u" d="M1319.87,1229.1l-28.234-16.3v-6.25l28.234,16.3Z" transform="translate(-1291.637 -1136.188)"/><path class="u" d="M1493.389,1376.84l-44.508-25.7v-6.25l44.508,25.7Z" transform="translate(-1404.372 -1235.371)"/><path class="u" d="M1544.132,1454.774l-24.475-14.13v-6.25l24.475,14.13Z" transform="translate(-1455.115 -1299.538)"/><path class="u" d="M1317.213,1323.762l-24.475-14.13v-6.25l24.475,14.13Z" transform="translate(-1292.427 -1205.609)"/><path class="u" d="M1430.122,1388.95l-24.475-14.13v-6.25l24.475,14.13Z" transform="translate(-1373.376 -1252.346)"/><path class="u" d="M1498.825,1482.066l-42.362-24.229v-6.25l42.362,24.229Z" transform="translate(-1409.808 -1311.864)"/><path class="u" d="M1317.213,1376.632l-24.475-14.13v-6.25l24.475,14.13Z" transform="translate(-1292.427 -1243.514)"/><path class="u" d="M1319.6,1277.043l-26.862-15.509v-6.25l26.862,15.509Z" transform="translate(-1292.427 -1171.126)"/></g></g><g transform="translate(967.63 209.817)"><path class="v" d="M1363.305,436.46v7.156l-20.264-11.7V403.774l19.812,11.438v7.156l-11.734-6.774v3.3l10.306,5.95v6.835l-10.306-5.95v3.7Z" transform="translate(-1343.041 -403.774)"/><path class="v" d="M1436.271,478.667l-2.229-1.287v7.076l-8.217-4.744V451.569l11.734,6.774a24.625,24.625,0,0,1,5.885,4.684,20.778,20.778,0,0,1,3.865,5.93,16.282,16.282,0,0,1,1.358,6.413,7.523,7.523,0,0,1-1.184,4.583,4.118,4.118,0,0,1-3.412,1.608l5.118,11.639-8.774-5.066Zm3.273-11a6.95,6.95,0,0,0-2.507-2.312l-2.994-1.729v6.593l2.994,1.729q1.672.965,2.507.583t.836-1.95A5.427,5.427,0,0,0,1439.543,467.671Z" transform="translate(-1402.393 -438.04)"/><path class="v" d="M1527.911,531.575l-2.229-1.286v7.076l-8.217-4.744V504.477l11.734,6.775a24.62,24.62,0,0,1,5.884,4.684,20.77,20.77,0,0,1,3.865,5.93,16.28,16.28,0,0,1,1.358,6.413,7.521,7.521,0,0,1-1.184,4.583,4.115,4.115,0,0,1-3.412,1.608l5.118,11.639-8.774-5.066Zm3.273-11a6.957,6.957,0,0,0-2.507-2.312l-2.995-1.729v6.593l2.995,1.729q1.671.965,2.507.583t.835-1.95A5.43,5.43,0,0,0,1531.185,520.579Z" transform="translate(-1468.094 -475.973)"/><path class="v" d="M1612.349,599.08A29.677,29.677,0,0,1,1607.44,591a22.8,22.8,0,0,1-1.776-8.6,10.615,10.615,0,0,1,1.776-6.553,6.037,6.037,0,0,1,4.909-2.412,13.748,13.748,0,0,1,7.068,2.191,26.827,26.827,0,0,1,7.068,5.97,29.7,29.7,0,0,1,4.909,8.081,22.808,22.808,0,0,1,1.776,8.6,10.615,10.615,0,0,1-1.776,6.553,6.035,6.035,0,0,1-4.909,2.412,13.752,13.752,0,0,1-7.068-2.191A26.826,26.826,0,0,1,1612.349,599.08Zm9.836-.975a2.629,2.629,0,0,0,1.967-1.317,6.209,6.209,0,0,0,.731-3.3,12.018,12.018,0,0,0-.731-4.141,12.963,12.963,0,0,0-1.967-3.588,9.688,9.688,0,0,0-2.768-2.463,4.511,4.511,0,0,0-2.768-.734,2.631,2.631,0,0,0-1.967,1.317,6.215,6.215,0,0,0-.731,3.3,12.023,12.023,0,0,0,.731,4.141,12.931,12.931,0,0,0,1.967,3.588,9.674,9.674,0,0,0,2.768,2.463A4.509,4.509,0,0,0,1622.185,598.105Z" transform="translate(-1531.327 -525.406)"/><path class="v" d="M1723.864,644.708l-2.229-1.287V650.5l-8.217-4.744V617.61l11.734,6.774a24.618,24.618,0,0,1,5.884,4.684A20.765,20.765,0,0,1,1734.9,635a16.282,16.282,0,0,1,1.358,6.413,7.523,7.523,0,0,1-1.184,4.583,4.118,4.118,0,0,1-3.412,1.608l5.118,11.639-8.774-5.066Zm3.273-11a6.949,6.949,0,0,0-2.507-2.312l-2.994-1.729v6.593l2.994,1.729q1.672.965,2.507.583t.835-1.95A5.425,5.425,0,0,0,1727.136,633.712Z" transform="translate(-1608.581 -557.083)"/></g><g class="w" transform="translate(945.788 411.859)"><ellipse class="x" cx="27.343" cy="47.359" rx="27.343" ry="47.359" transform="translate(0 27.343) rotate(-30)"/><path class="s" d="M1391.01,1235.128l10.938-6.315c1.945-1.123,1.945-4.765,0-8.134s-5.1-5.19-7.045-4.067l-10.938,6.315-10.938-18.945c-1.945-3.369-5.1-5.19-7.044-4.067s-1.945,4.765,0,8.134l10.938,18.945-10.93,6.31c-1.945,1.123-1.945,4.765,0,8.134a10.145,10.145,0,0,0,3.522,3.718,3.523,3.523,0,0,0,3.522.349l10.93-6.31,10.93,18.932a10.144,10.144,0,0,0,3.522,3.718,3.524,3.524,0,0,0,3.522.349c1.945-1.123,1.945-4.765,0-8.134Z" transform="translate(-1336.601 -1176.368)"/></g><g transform="translate(1131.741 345.042)"><g transform="translate(11.944 168.355)"><ellipse class="i" cx="30.753" cy="17.756" rx="30.753" ry="17.756" transform="translate(6.254 40.102)"/><path class="x" d="M2012,1579.85h-41.8l-5.036-50.553h51.874Z" transform="translate(-1965.123 -1514.294)"/><ellipse class="x" cx="20.858" cy="12.042" rx="20.858" ry="12.042" transform="translate(5.118 53.947)"/><ellipse class="y" cx="25.977" cy="15.004" rx="25.977" ry="15.004"/><ellipse class="z" cx="25.977" cy="15.004" rx="25.977" ry="15.004"/></g><path class="aa" d="M1951.578,1022.343s-23.99,3.094-28.077-13.3,11.763-21.063,9.865-30.36-9.577-18.139-3.392-28.032,17.424-12.809,18.8-16.231,1.663-12.054,4.306-15.895,3.613-15.037,12.434-21.662,15.346-5.582,19.157-15.352c0,0,7.663,7.382,9.327,11.4s-1,14.12-7.516,19.168-12.68,20.62-9.366,27.754,6.775,9.31,10.892,12.548,9.9,8.57,2.506,18.292-7.248,12.48-2.715,19.5,5.565,15.071-12.737,24.238C1955.636,1024.148,1951.578,1022.343,1951.578,1022.343Z" transform="translate(-1922.825 -881.512)"/><g transform="translate(27.699 18.674)"><path class="ab" d="M2030.165,1110.009a.938.938,0,0,1-.9-.671,203.427,203.427,0,0,1-8.471-64.821,198.193,198.193,0,0,1,8.518-51.085c8.631-28.3,20.851-45.39,20.973-45.559a.937.937,0,0,1,1.519,1.1c-.121.167-12.187,17.054-20.722,45.082a198.6,198.6,0,0,0-.02,114.751.937.937,0,0,1-.632,1.165A.923.923,0,0,1,2030.165,1110.009Z" transform="translate(-2020.684 -947.486)"/></g><g transform="translate(27.925 72.826)"><path class="ab" d="M2022.419,1179.869a.937.937,0,0,1-.729-1.525l31.554-39.2a.937.937,0,1,1,1.46,1.176l-31.554,39.2A.936.936,0,0,1,2022.419,1179.869Z" transform="translate(-2021.482 -1138.798)"/></g><g transform="translate(19.889 71.003)"><path class="ab" d="M2002.354,1170.418a.931.931,0,0,1-.507-.15c-.462-.3-.717-.463-4.808-18.829-1.981-8.9-3.91-17.857-3.929-17.946a.937.937,0,0,1,1.833-.394c2.91,13.528,7.459,34.086,8.184,35.849a.938.938,0,0,1-.772,1.47Zm.509-1.725h0Z" transform="translate(-1993.089 -1132.359)"/></g><g transform="translate(46.44 20.646)"><path class="ab" d="M2087.832,973.336a.921.921,0,0,1-.171-.016.937.937,0,0,1-.752-1.092l3.147-17.009a.937.937,0,0,1,1.844.341l-3.147,17.01A.937.937,0,0,1,2087.832,973.336Z" transform="translate(-2086.893 -954.452)"/></g><g transform="translate(32.505 87.705)"><path class="ac" d="M2049.589,1259.573s-14.21-5.4-11.61-15.7,12.768-8.179,14.475-13.894.077-12.892,6.439-16.538,13.455-1.926,15.231-3.415,4.5-6.185,7.1-7.529,6.464-7.259,13.317-8.312,10.159,1.461,15.17-2.821c0,0,2.055,6.364,1.783,9.086s-4.742,7.528-9.852,8.39-13.145,7.662-13.425,12.6.991,7.169,2.311,10.185,2.942,7.686-4.04,10.878-7.719,4.764-7.292,10-1.389,10-14.25,9.649C2051.3,1261.778,2049.589,1259.573,2049.589,1259.573Z" transform="translate(-2037.661 -1191.365)"/><g transform="translate(4.307 9.155)"><path class="ab" d="M2053.467,1307.7a.6.6,0,0,1-.119-.012.589.589,0,0,1-.458-.7,125.986,125.986,0,0,1,34.421-64.2c13.181-13.12,25.022-18.961,25.14-19.018a.589.589,0,0,1,.516,1.06c-.117.057-11.813,5.832-24.859,18.828a124.824,124.824,0,0,0-34.063,63.572A.589.589,0,0,1,2053.467,1307.7Z" transform="translate(-2052.878 -1223.708)"/></g><g transform="translate(19.67 39.855)"><path class="ab" d="M2107.742,1345.7a.589.589,0,0,1-.23-1.132l29.113-12.353a.589.589,0,1,1,.46,1.085l-29.113,12.353A.586.586,0,0,1,2107.742,1345.7Z" transform="translate(-2107.152 -1332.17)"/></g><g transform="translate(21.293 27.098)"><path class="ab" d="M2113.449,1310.8a.589.589,0,0,1-.516-.3c-.146-.264-.346-.627,6.073-22.968a.589.589,0,0,1,1.133.325c-2.4,8.359-5.982,21.1-6.1,22.291a.589.589,0,0,1-.585.655Zm.515-.874h0Z" transform="translate(-2112.885 -1287.099)"/></g><g transform="translate(51.996 8.011)"><path class="ab" d="M2221.946,1229.334a.589.589,0,0,1-.46-.957l6.791-8.49a.589.589,0,1,1,.92.736l-6.791,8.49A.588.588,0,0,1,2221.946,1229.334Z" transform="translate(-2221.357 -1219.666)"/></g></g><g transform="translate(4.049 109.305)"><path class="ad" d="M1961.535,1326.2s-3.98,2.7-7.816,1.767-10.983-2.963-9.934-9.85,1.844-8.165.4-10.336-4.04-3.788-4.27-7.68,2.7-5.306.765-9.077-3.077-4.172-3.153-6.1c-.086-2.2-1.179-6.08.665-12.083,0,0,1.364-5.148,4.043-5.165s4.319,5.105,5.339,6.285,2.486,4.06,3.5,4.781,1.839,4.215,1.471,6.456,1.066,5.1,6.661,7.892,5.766,6.525,4.5,10.517c-1.634,5.148,5.936,4.558,5.54,11.077C1969.24,1314.683,1970.221,1322.771,1961.535,1326.2Z" transform="translate(-1937.128 -1267.675)"/><g transform="translate(5.104 9.733)"><path class="ab" d="M1983.4,1363.655a.372.372,0,0,1-.293-.142c-.238-.3-23.825-30.526-27.94-61.03a.373.373,0,0,1,.739-.1c4.088,30.3,27.55,60.368,27.787,60.668a.373.373,0,0,1-.292.6Z" transform="translate(-1955.159 -1302.061)"/></g><g transform="translate(16.711 27.162)"><path class="ab" d="M1996.541,1381.671a.381.381,0,0,1-.074-.007.373.373,0,0,1-.292-.438l3.45-17.29a.373.373,0,0,1,.731.146l-3.45,17.29A.372.372,0,0,1,1996.541,1381.671Z" transform="translate(-1996.167 -1363.636)"/></g><g transform="translate(5.19 29.35)"><path class="ab" d="M1962.489,1376.559a.372.372,0,0,1-.246-.093c-1.919-1.686-5.349-4.356-6.4-4.356h-.007a.373.373,0,0,1,0-.745h.007c1.676,0,6.363,4.076,6.893,4.542a.372.372,0,0,1-.246.653Z" transform="translate(-1955.465 -1371.365)"/></g><g transform="translate(7.448 12.882)"><path class="ab" d="M1963.815,1322.068a.36.36,0,0,1-.074-.007.373.373,0,0,1-.292-.439l1.642-8.136a.373.373,0,1,1,.73.148l-1.642,8.136A.373.373,0,0,1,1963.815,1322.068Z" transform="translate(-1963.441 -1313.186)"/></g><g transform="translate(10.369 47.868)"><path class="ab" d="M1986.46,1444.969a.373.373,0,0,1-.192-.053l-12.328-7.436a.373.373,0,0,1,.385-.639l12.329,7.436a.373.373,0,0,1-.193.692Z" transform="translate(-1973.759 -1436.787)"/></g></g></g></g></svg>