<?xml version="1.0" standalone="no"?>
<!DOCTYPE svg PUBLIC "-//W3C//DTD SVG 20010904//EN"
 "http://www.w3.org/TR/2001/REC-SVG-20010904/DTD/svg10.dtd">
<svg version="1.0" xmlns="http://www.w3.org/2000/svg"
 width="300.000000pt" height="158.000000pt" viewBox="0 0 300.000000 158.000000"
 preserveAspectRatio="xMidYMid meet">
<metadata>
Created by potrace 1.10, written by Peter Selinger 2001-2011
</metadata>
<g transform="translate(0.000000,158.000000) scale(0.100000,-0.100000)"
fill="#000000" stroke="none">
<path d="M919 1467 c-54 -36 -80 -91 -76 -159 4 -70 36 -120 94 -149 143 -70
280 115 193 259 -44 71 -143 95 -211 49z m149 -23 c86 -56 81 -209 -8 -256
-45 -24 -85 -23 -127 3 -44 28 -63 66 -63 131 0 115 107 181 198 122z"/>
<path d="M1410 1236 c0 -8 -8 -19 -17 -25 -17 -9 -16 -11 4 -33 29 -30 78 -30
100 1 13 20 13 25 2 32 -8 4 -14 14 -14 21 0 8 -15 14 -37 16 -29 2 -38 -1
-38 -12z m58 -34 c2 -7 -7 -12 -22 -12 -24 0 -33 10 -20 22 9 10 38 2 42 -10z"/>
<path d="M2050 1221 c0 -11 -5 -21 -11 -23 -9 -3 -8 -10 1 -25 17 -26 76 -36
96 -15 17 17 17 21 2 55 -11 22 -20 27 -50 27 -31 0 -38 -4 -38 -19z m68 -29
c2 -7 -7 -12 -22 -12 -24 0 -33 10 -20 22 9 10 38 2 42 -10z"/>
<path d="M1367 1123 c-51 -14 -58 -18 -53 -37 2 -11 8 -58 12 -103 4 -57 11
-83 19 -83 16 0 19 -13 40 -160 10 -63 19 -120 21 -127 1 -7 20 -11 46 -10
l43 2 7 65 c8 81 30 232 33 228 1 -2 32 -36 69 -77 54 -61 66 -81 66 -109 l0
-34 28 24 c26 21 27 24 10 30 -10 4 -18 11 -18 15 0 4 -34 44 -74 88 -88 95
-94 94 -121 -30 -10 -44 -23 -86 -29 -94 -8 -11 -8 -15 2 -18 24 -9 12 -21
-20 -19 -17 1 -34 8 -36 15 -3 8 0 11 5 8 6 -4 5 10 -3 32 -7 21 -16 62 -20
92 -3 30 -16 69 -27 87 -27 46 -31 185 -5 190 9 2 26 -6 38 -18 20 -20 23 -20
39 -6 10 9 21 16 24 16 4 0 8 -46 9 -102 l2 -103 3 90 c4 128 6 132 47 127 32
-4 34 -6 34 -43 1 -46 7 -56 119 -181 104 -114 88 -115 223 16 l92 88 -4 50
c-4 45 -3 51 19 59 33 12 36 12 59 -8 31 -28 44 -26 44 7 0 16 5 30 10 30 6 0
10 -16 10 -36 l0 -37 20 26 c13 17 27 24 37 20 13 -5 15 -17 9 -77 -4 -39 -15
-88 -26 -108 -11 -21 -24 -70 -29 -110 -5 -40 -12 -81 -16 -90 -5 -12 -2 -18
8 -18 16 0 22 22 33 120 4 40 13 71 23 81 16 15 48 195 37 206 -6 7 -109 33
-130 33 -14 0 -17 -5 -13 -21 3 -13 1 -19 -6 -16 -7 3 -11 10 -9 16 3 14 -22
14 -72 0 l-38 -11 6 -56 6 -57 -94 -87 c-52 -49 -99 -88 -104 -88 -17 0 -197
211 -195 228 1 9 4 29 7 43 5 26 2 28 -59 43 -75 19 -82 19 -158 -1z m69 -29
c-4 -12 -10 -14 -17 -7 -5 5 -7 17 -3 27 4 12 10 14 17 7 5 -5 7 -17 3 -27z
m44 26 c0 -5 -5 -10 -11 -10 -5 0 -7 5 -4 10 3 6 8 10 11 10 2 0 4 -4 4 -10z
m-15 -479 c3 -6 -3 -9 -14 -8 -11 0 -17 5 -15 9 7 11 22 10 29 -1z"/>
<path d="M980 1086 c0 -25 5 -48 10 -51 6 -4 10 -71 9 -178 -2 -152 0 -172 15
-175 16 -3 23 13 9 21 -5 3 -6 80 -3 171 3 91 2 166 -2 166 -12 0 -10 68 2 75
11 7 13 -4 11 -45 l-1 -25 15 28 c20 34 46 32 56 -5 8 -29 -12 -150 -28 -170
-6 -7 -13 -40 -17 -73 -4 -33 -9 -78 -13 -100 -3 -22 -3 -37 1 -34 4 4 11 35
16 70 18 119 21 129 33 129 9 0 18 36 28 104 l14 105 -62 15 c-92 23 -93 23
-93 -28z"/>
<path d="M892 1109 c-29 -9 -33 -13 -28 -37 3 -15 8 -62 12 -104 4 -50 11 -78
18 -78 10 0 47 -177 60 -280 2 -17 63 -22 84 -7 14 11 16 77 2 77 -5 0 -10 -4
-10 -9 0 -10 -57 -8 -67 3 -4 3 -8 14 -9 24 -35 235 -41 391 -16 399 7 3 12
-5 12 -21 0 -13 4 -27 9 -30 5 -3 8 12 7 34 -1 44 -10 47 -74 29z m8 -49 c0
-11 -4 -20 -9 -20 -5 0 -7 9 -4 20 3 11 7 20 9 20 2 0 4 -9 4 -20z"/>
<path d="M1590 941 c0 -8 12 -22 92 -108 16 -18 34 -33 39 -33 6 0 -20 34 -58
75 -71 78 -73 81 -73 66z"/>
<path d="M1905 797 c-47 -45 -91 -80 -97 -78 -7 2 -4 -6 6 -18 27 -30 5 -26
-24 4 -27 29 -36 31 -56 10 -8 -8 -23 -19 -32 -24 -9 -5 -13 -13 -9 -17 4 -5
16 -3 25 4 36 25 44 24 82 -13 l38 -37 7 49 c6 44 14 54 85 120 l78 73 17 -93
c9 -50 19 -110 22 -132 6 -52 8 -54 49 -52 39 3 54 19 54 60 0 26 -13 36 -24
18 -3 -5 -15 -7 -26 -4 -13 3 -20 0 -20 -8 -1 -20 -23 22 -26 47 -12 113 -31
174 -55 174 -5 0 -47 -37 -94 -83z m211 -169 c3 -4 -1 -5 -10 -4 -8 1 -18 5
-22 8 -3 4 1 5 10 4 8 -1 18 -5 22 -8z"/>
<path d="M350 270 c0 -153 1 -160 20 -160 19 0 20 7 20 160 0 153 -1 160 -20
160 -19 0 -20 -7 -20 -160z"/>
<path d="M2370 270 c0 -153 1 -160 20 -160 19 0 20 7 20 160 0 153 -1 160 -20
160 -19 0 -20 -7 -20 -160z"/>
<path d="M2502 420 c-28 -12 -46 -51 -38 -83 3 -14 31 -51 61 -82 30 -31 55
-61 55 -68 -1 -30 -18 -40 -63 -35 -34 4 -47 2 -51 -9 -12 -30 84 -44 122 -17
17 12 22 25 22 60 0 41 -5 49 -56 100 -70 71 -72 99 -4 99 31 0 47 5 51 15 11
26 -51 39 -99 20z"/>
<path d="M460 266 c0 -142 1 -154 18 -150 15 5 17 18 15 127 l-2 122 37 -77
c23 -48 43 -77 53 -78 11 0 29 27 52 78 l36 77 1 -126 c0 -105 2 -126 15 -126
13 0 15 24 15 154 0 147 -1 153 -20 153 -16 0 -29 -18 -58 -80 -20 -43 -39
-79 -42 -79 -3 0 -22 36 -42 79 -29 62 -42 80 -58 80 -19 0 -20 -6 -20 -154z"/>
<path d="M860 298 c0 -162 5 -172 88 -176 51 -2 62 0 62 13 0 11 -10 15 -39
15 -64 0 -71 6 -71 62 l0 51 45 -5 c39 -5 45 -3 45 13 0 16 -8 19 -45 19 l-45
0 0 51 0 51 50 -4 c42 -2 50 0 50 15 0 14 -10 17 -70 17 l-70 0 0 -122z"/>
<path d="M1060 266 c0 -152 0 -154 21 -149 20 6 21 11 17 119 -2 63 0 114 4
114 5 0 8 -4 8 -9 0 -4 24 -42 54 -83 43 -60 52 -80 49 -105 -4 -24 -1 -31 16
-36 21 -5 21 -2 21 149 0 151 0 154 -21 154 -21 0 -22 -3 -16 -90 3 -49 5 -90
3 -90 -1 0 -29 40 -62 90 -87 132 -94 127 -94 -64z"/>
<path d="M1290 402 c0 -14 7 -17 41 -14 l40 4 -3 -135 c-3 -123 -1 -136 15
-141 16 -4 17 7 17 135 l0 139 40 0 c29 0 40 4 40 15 0 12 -17 15 -95 15 -84
0 -95 -2 -95 -18z"/>
<path d="M1518 283 c2 -78 8 -143 14 -150 16 -20 128 -18 128 2 0 11 -11 15
-43 15 -54 0 -67 13 -67 68 l0 45 45 -5 c39 -5 45 -3 45 13 0 16 -8 19 -45 19
l-45 0 0 51 0 51 50 -4 c42 -2 50 0 50 15 0 14 -10 17 -67 17 l-68 0 3 -137z"/>
<path d="M1710 271 c0 -140 1 -149 20 -154 18 -5 20 0 20 58 l0 62 28 -5 c32
-6 39 -14 53 -69 7 -27 18 -43 31 -46 18 -5 20 -2 14 26 -4 18 -14 48 -24 67
-16 33 -16 36 0 52 13 13 18 34 18 68 0 71 -21 90 -100 90 l-60 0 0 -149z
m114 103 c18 -18 21 -56 6 -85 -8 -13 -21 -19 -45 -19 l-35 0 0 60 c0 60 0 60
29 60 16 0 37 -7 45 -16z"/>
<path d="M1930 271 c0 -140 1 -149 20 -154 18 -5 20 0 20 54 l0 59 36 0 c50 0
72 15 83 57 13 46 -2 108 -29 123 -10 5 -44 10 -74 10 l-56 0 0 -149z m114
103 c21 -20 20 -73 -1 -96 -9 -10 -29 -18 -45 -18 -28 0 -28 0 -28 65 l0 65
29 0 c16 0 37 -7 45 -16z"/>
<path d="M2150 266 c0 -151 0 -154 21 -149 18 5 20 12 17 59 -3 52 -2 54 23
54 33 0 44 -13 58 -66 7 -28 18 -43 31 -47 11 -3 20 -3 20 0 0 18 -33 114 -41
119 -5 3 0 17 11 31 27 35 27 106 0 133 -16 16 -33 20 -80 20 l-60 0 0 -154z
m100 114 c23 -12 33 -52 20 -84 -8 -22 -16 -26 -47 -26 l-38 0 3 60 c3 52 6
60 24 60 10 0 28 -4 38 -10z"/>
<path d="M2670 288 c0 -73 4 -140 10 -148 5 -8 32 -16 69 -20 54 -5 61 -4 61
12 0 15 -8 18 -43 18 -54 0 -67 13 -67 68 l0 44 47 -4 c39 -2 48 0 51 15 3 14
-4 17 -47 17 l-51 0 0 51 0 50 52 -2 c43 -3 54 0 56 14 3 15 -6 17 -67 17
l-71 0 0 -132z"/>
</g>
</svg>
